# xmcd
#
# Track frame offsets:
#	150
#	12541
#	29741
#	44813
#	60484
#	71614
#	85561
#	101738
#	115453
#	130619
#	148089
#
# Disc length: 2182 seconds
# Revision: 0
# Processed by: cddbd v1.5.2PL0 Copyright (c) Steve Scherf et al.
# Submitted via: dBpowerAMP V12.0
#
DISCID=a008840b
DTITLE=Mikayla Lynn - One Wave At A Time
DYEAR=2012
DGENRE=Country
TTITLE0=Waitin' On The Rain
TTITLE1=Get Onboard
TTITLE2=Mis'd
TTITLE3=IWanna Live Like That
TTITLE4=Good Old Fashion Romance
TTITLE5=You're So Yesterday
TTITLE6=When I Pray
TTITLE7=I'm Gonna Make It
TTITLE8=Today's Gonna Be Beautiful
TTITLE9=Unbreakable Love
TTITLE10=One Wave At A Time
EXTD=
EXTT0=
EXTT1=
EXTT2=
EXTT3=
EXTT4=
EXTT5=
EXTT6=
EXTT7=
EXTT8=
EXTT9=
EXTT10=
PLAYORDER=
